<mxfile host="65bd71144e">
    <diagram id="RzU--uRf6rDcQ9v3rhGj" name="Página-1">
        <mxGraphModel dx="696" dy="637" grid="1" gridSize="10" guides="1" tooltips="1" connect="1" arrows="1" fold="1" page="1" pageScale="1" pageWidth="827" pageHeight="1169" math="0" shadow="0">
            <root>
                <mxCell id="0"/>
                <mxCell id="1" parent="0"/>
                <mxCell id="29" value="" style="edgeStyle=none;html=1;" edge="1" parent="1" source="32" target="34">
                    <mxGeometry relative="1" as="geometry"/>
                </mxCell>
                <mxCell id="30" value="" style="edgeStyle=none;html=1;startArrow=none;" edge="1" parent="1" source="57" target="36">
                    <mxGeometry relative="1" as="geometry">
                        <Array as="points">
                            <mxPoint x="344" y="70"/>
                        </Array>
                    </mxGeometry>
                </mxCell>
                <mxCell id="31" value="" style="edgeStyle=none;html=1;startArrow=none;" edge="1" parent="1" source="60" target="38">
                    <mxGeometry relative="1" as="geometry">
                        <Array as="points">
                            <mxPoint x="344" y="380"/>
                        </Array>
                    </mxGeometry>
                </mxCell>
                <mxCell id="32" value="t1: Polígono" style="swimlane;fontStyle=0;childLayout=stackLayout;horizontal=1;startSize=30;horizontalStack=0;resizeParent=1;resizeParentMax=0;resizeLast=0;collapsible=1;marginBottom=0;" vertex="1" parent="1">
                    <mxGeometry x="274" y="170" width="140" height="60" as="geometry"/>
                </mxCell>
                <mxCell id="33" value="" style="text;strokeColor=none;fillColor=default;align=left;verticalAlign=middle;spacingLeft=4;spacingRight=4;overflow=hidden;points=[[0,0.5],[1,0.5]];portConstraint=eastwest;rotatable=0;" vertex="1" parent="32">
                    <mxGeometry y="30" width="140" height="30" as="geometry"/>
                </mxCell>
                <mxCell id="34" value="pt2: Punto" style="swimlane;fontStyle=0;childLayout=stackLayout;horizontal=1;startSize=30;horizontalStack=0;resizeParent=1;resizeParentMax=0;resizeLast=0;collapsible=1;marginBottom=0;" vertex="1" parent="1">
                    <mxGeometry x="10" y="170" width="140" height="60" as="geometry"/>
                </mxCell>
                <mxCell id="35" value="X: -10&#10;Y: -10" style="text;strokeColor=none;fillColor=default;align=left;verticalAlign=middle;spacingLeft=4;spacingRight=4;overflow=hidden;points=[[0,0.5],[1,0.5]];portConstraint=eastwest;rotatable=0;" vertex="1" parent="34">
                    <mxGeometry y="30" width="140" height="30" as="geometry"/>
                </mxCell>
                <mxCell id="36" value="pt1: Punto" style="swimlane;fontStyle=0;childLayout=stackLayout;horizontal=1;startSize=30;horizontalStack=0;resizeParent=1;resizeParentMax=0;resizeLast=0;collapsible=1;marginBottom=0;" vertex="1" parent="1">
                    <mxGeometry x="390" y="40" width="146" height="60" as="geometry"/>
                </mxCell>
                <mxCell id="37" value="X: -10&#10;Y: 10" style="text;strokeColor=none;fillColor=default;align=left;verticalAlign=middle;spacingLeft=4;spacingRight=4;overflow=hidden;points=[[0,0.5],[1,0.5]];portConstraint=eastwest;rotatable=0;" vertex="1" parent="36">
                    <mxGeometry y="30" width="146" height="30" as="geometry"/>
                </mxCell>
                <mxCell id="38" value="pt3: Punto" style="swimlane;fontStyle=0;childLayout=stackLayout;horizontal=1;startSize=30;horizontalStack=0;resizeParent=1;resizeParentMax=0;resizeLast=0;collapsible=1;marginBottom=0;" vertex="1" parent="1">
                    <mxGeometry x="396" y="350" width="140" height="60" as="geometry"/>
                </mxCell>
                <mxCell id="39" value="X: 10&#10;Y: -10" style="text;strokeColor=none;fillColor=default;align=left;verticalAlign=middle;spacingLeft=4;spacingRight=4;overflow=hidden;points=[[0,0.5],[1,0.5]];portConstraint=eastwest;rotatable=0;" vertex="1" parent="38">
                    <mxGeometry y="30" width="140" height="30" as="geometry"/>
                </mxCell>
                <mxCell id="40" value="" style="edgeStyle=none;html=1;startArrow=none;" edge="1" parent="1" source="64" target="45">
                    <mxGeometry relative="1" as="geometry"/>
                </mxCell>
                <mxCell id="41" value="" style="edgeStyle=none;html=1;startArrow=none;entryX=1.006;entryY=0.052;entryDx=0;entryDy=0;entryPerimeter=0;" edge="1" parent="1" source="66" target="37">
                    <mxGeometry relative="1" as="geometry">
                        <mxPoint x="599.2307692307693" y="49.99999999999977" as="targetPoint"/>
                        <Array as="points">
                            <mxPoint x="600" y="72"/>
                        </Array>
                    </mxGeometry>
                </mxCell>
                <mxCell id="42" value="" style="edgeStyle=none;html=1;startArrow=none;entryX=1;entryY=0.5;entryDx=0;entryDy=0;" edge="1" parent="1" source="62" target="38">
                    <mxGeometry relative="1" as="geometry">
                        <mxPoint x="599" y="360" as="targetPoint"/>
                        <Array as="points">
                            <mxPoint x="599" y="380"/>
                        </Array>
                    </mxGeometry>
                </mxCell>
                <mxCell id="43" value="t2: Polígono" style="swimlane;fontStyle=0;childLayout=stackLayout;horizontal=1;startSize=30;horizontalStack=0;resizeParent=1;resizeParentMax=0;resizeLast=0;collapsible=1;marginBottom=0;" vertex="1" parent="1">
                    <mxGeometry x="529" y="170" width="140" height="60" as="geometry"/>
                </mxCell>
                <mxCell id="44" value="" style="text;strokeColor=none;fillColor=default;align=left;verticalAlign=middle;spacingLeft=4;spacingRight=4;overflow=hidden;points=[[0,0.5],[1,0.5]];portConstraint=eastwest;rotatable=0;" vertex="1" parent="43">
                    <mxGeometry y="30" width="140" height="30" as="geometry"/>
                </mxCell>
                <mxCell id="45" value="pt5: Punto" style="swimlane;fontStyle=0;childLayout=stackLayout;horizontal=1;startSize=30;horizontalStack=0;resizeParent=1;resizeParentMax=0;resizeLast=0;collapsible=1;marginBottom=0;" vertex="1" parent="1">
                    <mxGeometry x="830" y="170" width="140" height="60" as="geometry"/>
                </mxCell>
                <mxCell id="46" value="X: 10&#10;Y: 10" style="text;strokeColor=none;fillColor=default;align=left;verticalAlign=middle;spacingLeft=4;spacingRight=4;overflow=hidden;points=[[0,0.5],[1,0.5]];portConstraint=eastwest;rotatable=0;" vertex="1" parent="45">
                    <mxGeometry y="30" width="140" height="30" as="geometry"/>
                </mxCell>
                <mxCell id="51" value="Posee" style="text;html=1;resizable=0;autosize=1;align=center;verticalAlign=middle;points=[];fillColor=none;strokeColor=none;rounded=0;rotation=90;" vertex="1" parent="1">
                    <mxGeometry x="304" y="290" width="50" height="20" as="geometry"/>
                </mxCell>
                <mxCell id="52" value="Posee" style="text;html=1;resizable=0;autosize=1;align=center;verticalAlign=middle;points=[];fillColor=none;strokeColor=none;rounded=0;rotation=-90;" vertex="1" parent="1">
                    <mxGeometry x="589" y="100" width="50" height="20" as="geometry"/>
                </mxCell>
                <mxCell id="53" value="Posee" style="text;html=1;resizable=0;autosize=1;align=center;verticalAlign=middle;points=[];fillColor=none;strokeColor=none;rounded=0;rotation=90;" vertex="1" parent="1">
                    <mxGeometry x="590" y="280" width="50" height="20" as="geometry"/>
                </mxCell>
                <mxCell id="54" value="Posee" style="text;html=1;resizable=0;autosize=1;align=center;verticalAlign=middle;points=[];fillColor=none;strokeColor=none;rounded=0;" vertex="1" parent="1">
                    <mxGeometry x="720" y="180" width="50" height="20" as="geometry"/>
                </mxCell>
                <mxCell id="55" value="Posee" style="text;html=1;resizable=0;autosize=1;align=center;verticalAlign=middle;points=[];fillColor=none;strokeColor=none;rounded=0;" vertex="1" parent="1">
                    <mxGeometry x="190" y="180" width="50" height="20" as="geometry"/>
                </mxCell>
                <mxCell id="56" value="Posee" style="text;html=1;resizable=0;autosize=1;align=center;verticalAlign=middle;points=[];fillColor=none;strokeColor=none;rounded=0;rotation=-90;" vertex="1" parent="1">
                    <mxGeometry x="304" y="100" width="50" height="20" as="geometry"/>
                </mxCell>
                <mxCell id="57" value="" style="rhombus;whiteSpace=wrap;html=1;" vertex="1" parent="1">
                    <mxGeometry x="334" y="130" width="20" height="40" as="geometry"/>
                </mxCell>
                <mxCell id="58" value="" style="edgeStyle=none;html=1;endArrow=none;" edge="1" parent="1" source="32" target="57">
                    <mxGeometry relative="1" as="geometry">
                        <mxPoint x="343.5" y="169.99999999999977" as="sourcePoint"/>
                        <mxPoint x="341.5" y="49.99999999999977" as="targetPoint"/>
                    </mxGeometry>
                </mxCell>
                <mxCell id="59" value="" style="rhombus;whiteSpace=wrap;html=1;rotation=90;" vertex="1" parent="1">
                    <mxGeometry x="240" y="180" width="20" height="40" as="geometry"/>
                </mxCell>
                <mxCell id="60" value="" style="rhombus;whiteSpace=wrap;html=1;" vertex="1" parent="1">
                    <mxGeometry x="334" y="230" width="20" height="40" as="geometry"/>
                </mxCell>
                <mxCell id="61" value="" style="edgeStyle=none;html=1;endArrow=none;" edge="1" parent="1" source="32" target="60">
                    <mxGeometry relative="1" as="geometry">
                        <mxPoint x="343.52631578947376" y="229.99999999999977" as="sourcePoint"/>
                        <mxPoint x="341.47368421052624" y="360" as="targetPoint"/>
                    </mxGeometry>
                </mxCell>
                <mxCell id="62" value="" style="rhombus;whiteSpace=wrap;html=1;" vertex="1" parent="1">
                    <mxGeometry x="589" y="230" width="20" height="40" as="geometry"/>
                </mxCell>
                <mxCell id="63" value="" style="edgeStyle=none;html=1;endArrow=none;" edge="1" parent="1" source="43" target="62">
                    <mxGeometry relative="1" as="geometry">
                        <mxPoint x="599" y="229.99999999999977" as="sourcePoint"/>
                        <mxPoint x="599" y="360" as="targetPoint"/>
                    </mxGeometry>
                </mxCell>
                <mxCell id="64" value="" style="rhombus;whiteSpace=wrap;html=1;rotation=90;" vertex="1" parent="1">
                    <mxGeometry x="680" y="180" width="20" height="40" as="geometry"/>
                </mxCell>
                <mxCell id="65" value="" style="edgeStyle=none;html=1;endArrow=none;" edge="1" parent="1" source="43" target="64">
                    <mxGeometry relative="1" as="geometry">
                        <mxPoint x="669" y="199.99999999999977" as="sourcePoint"/>
                        <mxPoint x="830.0000000000002" y="199.99999999999977" as="targetPoint"/>
                    </mxGeometry>
                </mxCell>
                <mxCell id="66" value="" style="rhombus;whiteSpace=wrap;html=1;" vertex="1" parent="1">
                    <mxGeometry x="590" y="130" width="20" height="40" as="geometry"/>
                </mxCell>
                <mxCell id="67" value="" style="edgeStyle=none;html=1;endArrow=none;" edge="1" parent="1" source="43" target="66">
                    <mxGeometry relative="1" as="geometry">
                        <mxPoint x="599" y="169.99999999999977" as="sourcePoint"/>
                        <mxPoint x="599" y="49.99999999999977" as="targetPoint"/>
                    </mxGeometry>
                </mxCell>
                <mxCell id="68" value="" style="triangle;whiteSpace=wrap;html=1;fillColor=#000000;rotation=90;" vertex="1" parent="1">
                    <mxGeometry x="605" y="310" width="20" height="20" as="geometry"/>
                </mxCell>
                <mxCell id="69" value="" style="triangle;whiteSpace=wrap;html=1;fillColor=#000000;rotation=-180;" vertex="1" parent="1">
                    <mxGeometry x="570" y="50" width="20" height="20" as="geometry"/>
                </mxCell>
                <mxCell id="70" value="" style="triangle;whiteSpace=wrap;html=1;fillColor=#000000;rotation=0;" vertex="1" parent="1">
                    <mxGeometry x="770" y="180" width="20" height="20" as="geometry"/>
                </mxCell>
                <mxCell id="71" value="" style="triangle;whiteSpace=wrap;html=1;fillColor=#000000;rotation=90;" vertex="1" parent="1">
                    <mxGeometry x="319" y="330" width="20" height="20" as="geometry"/>
                </mxCell>
                <mxCell id="72" value="" style="triangle;whiteSpace=wrap;html=1;fillColor=#000000;rotation=0;" vertex="1" parent="1">
                    <mxGeometry x="345" y="50" width="20" height="20" as="geometry"/>
                </mxCell>
                <mxCell id="73" value="" style="triangle;whiteSpace=wrap;html=1;fillColor=#000000;rotation=-180;" vertex="1" parent="1">
                    <mxGeometry x="170" y="180" width="20" height="20" as="geometry"/>
                </mxCell>
            </root>
        </mxGraphModel>
    </diagram>
</mxfile>